<svg width="546" height="546" viewBox="0 0 546 546" fill="none" xmlns="http://www.w3.org/2000/svg">
<path d="M213.207 359.207L150.207 422.207L0.707031 272.707L181.207 92.207L204.207 115.207L47.207 272.207L151.207 376.207L191.207 336.207L213.707 358.707L213.207 359.207Z" fill="#c78aff"/>
<path d="M476.707 340.707L453.707 317.707L499.207 272.207L400.707 173.707L355.707 218.707L332.707 195.707L400.707 127.707L545.207 272.207L476.707 340.707Z" fill="#c78aff"/>
<path d="M203.707 70.207L273.207 0.707031L379.707 107.207L312.207 174.707L290.207 152.707L334.207 108.707L272.207 46.707L226.207 92.707L203.707 70.207Z" fill="#c78aff"/>
<path d="M151.207 337.707L249.207 239.707L226.707 217.207L151.707 292.207L132.207 272.707L161.707 243.207L138.707 220.207L86.207 272.707L151.207 337.707Z" fill="#c78aff"/>
<path fill-rule="evenodd" clip-rule="evenodd" d="M161.707 198.707L183.207 220.207L226.707 176.707L289.707 239.707L212.207 317.207L297.207 402.207L256.207 443.207L277.207 464.207L463.707 277.707L400.707 214.707L317.207 298.207L296.707 277.707L334.707 239.707L249.207 154.207L294.707 108.707L273.207 87.207L161.707 198.707ZM401.207 259.207L419.707 277.707L319.707 378.707L258.207 317.207L274.707 300.707L317.207 343.207L401.207 259.207Z" fill="#c78aff"/>
<path d="M213.207 359.207L150.207 422.207L0.707031 272.707L181.207 92.207L204.207 115.207L47.207 272.207L151.207 376.207L191.207 336.207L213.707 358.707L213.207 359.207Z" stroke="var(--color-brand, #c78aff)"/>
<path d="M476.707 340.707L453.707 317.707L499.207 272.207L400.707 173.707L355.707 218.707L332.707 195.707L400.707 127.707L545.207 272.207L476.707 340.707Z" stroke="#c78aff"/>
<path d="M203.707 70.207L273.207 0.707031L379.707 107.207L312.207 174.707L290.207 152.707L334.207 108.707L272.207 46.707L226.207 92.707L203.707 70.207Z" stroke="#c78aff"/>
<path d="M151.207 337.707L249.207 239.707L226.707 217.207L151.707 292.207L132.207 272.707L161.707 243.207L138.707 220.207L86.207 272.707L151.207 337.707Z" stroke="#c78aff"/>
<path d="M419.707 277.707L401.207 259.207L317.207 343.207L274.707 300.707L258.207 317.207L319.707 378.707L419.707 277.707Z" stroke="#c78aff"/>
<path fill-rule="evenodd" clip-rule="evenodd" d="M161.707 198.707L183.207 220.207L226.707 176.707L289.707 239.707L212.207 317.207L297.207 402.207L256.207 443.207L277.207 464.207L463.707 277.707L400.707 214.707L317.207 298.207L296.707 277.707L334.707 239.707L249.207 154.207L294.707 108.707L273.207 87.207L161.707 198.707ZM401.207 259.207L419.707 277.707L319.707 378.707L258.207 317.207L274.707 300.707L317.207 343.207L401.207 259.207Z" stroke="#c78aff"/>
<path d="M234.707 380.207L171.207 443.707L272.707 545.207L455.207 362.707L432.707 340.207L273.707 499.207L216.207 441.707L256.207 401.707L234.707 380.207Z" fill="#c78aff" stroke="#c78aff"/>
</svg>
