<?xml version="1.0" encoding="UTF-8" standalone="no"?>
<svg width="4029" height="546" viewBox="0 0 4029 546" fill="none" xmlns="http://www.w3.org/2000/svg">
<path d="M3285.54 451.707V399.327L3282.15 388.172V296.507C3282.15 278.724 3276.81 264.982 3266.14 255.282C3255.47 245.259 3239.31 240.247 3217.64 240.247C3203.09 240.247 3188.7 242.51 3174.48 247.037C3160.57 251.564 3148.77 257.869 3139.07 265.952L3115.31 221.817C3129.21 211.147 3145.7 203.225 3164.78 198.052C3184.18 192.555 3204.22 189.807 3224.92 189.807C3262.42 189.807 3291.36 198.86 3311.73 216.967C3332.43 234.75 3342.77 262.395 3342.77 299.902V451.707H3285.54ZM3204.06 455.102C3184.66 455.102 3167.69 451.869 3153.14 445.402C3138.59 438.612 3127.27 429.397 3119.19 417.757C3111.43 405.794 3107.55 392.375 3107.55 377.502C3107.55 362.952 3110.94 349.857 3117.73 338.217C3124.85 326.577 3136.32 317.362 3152.17 310.572C3168.01 303.782 3189.03 300.387 3215.22 300.387H3290.39V340.642H3219.58C3198.89 340.642 3184.99 344.037 3177.87 350.827C3170.76 357.294 3167.2 365.377 3167.2 375.077C3167.2 386.07 3171.57 394.8 3180.3 401.267C3189.03 407.734 3201.15 410.967 3216.67 410.967C3231.55 410.967 3244.8 407.572 3256.44 400.782C3268.41 393.992 3276.97 383.969 3282.15 370.712L3292.33 407.087C3286.51 422.284 3276 434.085 3260.81 442.492C3245.93 450.899 3227.02 455.102 3204.06 455.102ZM3564.14 455.102C3543.12 455.102 3523.88 450.252 3506.42 440.552C3489.28 430.852 3475.54 416.302 3465.2 396.902C3455.17 377.179 3450.16 352.282 3450.16 322.212C3450.16 291.819 3455.01 266.922 3464.71 247.522C3474.73 228.122 3488.31 213.734 3505.45 204.357C3522.59 194.657 3542.15 189.807 3564.14 189.807C3589.68 189.807 3612.15 195.304 3631.55 206.297C3651.27 217.29 3666.79 232.649 3678.11 252.372C3689.75 272.095 3695.57 295.375 3695.57 322.212C3695.57 349.049 3689.75 372.49 3678.11 392.537C3666.79 412.26 3651.27 427.619 3631.55 438.612C3612.15 449.605 3589.68 455.102 3564.14 455.102ZM3420.58 545.797V192.717H3478.29V253.827L3476.35 322.697L3481.2 391.567V545.797H3420.58ZM3557.35 403.207C3571.9 403.207 3584.83 399.974 3596.15 393.507C3607.79 387.04 3617 377.664 3623.79 365.377C3630.58 353.09 3633.98 338.702 3633.98 322.212C3633.98 305.399 3630.58 291.01 3623.79 279.047C3617 266.76 3607.79 257.384 3596.15 250.917C3584.83 244.45 3571.9 241.217 3557.35 241.217C3542.8 241.217 3529.7 244.45 3518.06 250.917C3506.42 257.384 3497.21 266.76 3490.42 279.047C3483.63 291.01 3480.23 305.399 3480.23 322.212C3480.23 338.702 3483.63 353.09 3490.42 365.377C3497.21 377.664 3506.42 387.04 3518.06 393.507C3529.7 399.974 3542.8 403.207 3557.35 403.207ZM3896.63 455.102C3875.61 455.102 3856.37 450.252 3838.91 440.552C3821.78 430.852 3808.03 416.302 3797.69 396.902C3787.66 377.179 3782.65 352.282 3782.65 322.212C3782.65 291.819 3787.5 266.922 3797.2 247.522C3807.23 228.122 3820.81 213.734 3837.94 204.357C3855.08 194.657 3874.64 189.807 3896.63 189.807C3922.17 189.807 3944.64 195.304 3964.04 206.297C3983.77 217.29 3999.29 232.649 4010.6 252.372C4022.24 272.095 4028.06 295.375 4028.06 322.212C4028.06 349.049 4022.24 372.49 4010.6 392.537C3999.29 412.26 3983.77 427.619 3964.04 438.612C3944.64 449.605 3922.17 455.102 3896.63 455.102ZM3753.07 545.797V192.717H3810.78V253.827L3808.84 322.697L3813.69 391.567V545.797H3753.07ZM3889.84 403.207C3904.39 403.207 3917.32 399.974 3928.64 393.507C3940.28 387.04 3949.49 377.664 3956.28 365.377C3963.07 353.09 3966.47 338.702 3966.47 322.212C3966.47 305.399 3963.07 291.01 3956.28 279.047C3949.49 266.76 3940.28 257.384 3928.64 250.917C3917.32 244.45 3904.39 241.217 3889.84 241.217C3875.29 241.217 3862.19 244.45 3850.55 250.917C3838.91 257.384 3829.7 266.76 3822.91 279.047C3816.12 291.01 3812.72 305.399 3812.72 322.212C3812.72 338.702 3816.12 353.09 3822.91 365.377C3829.7 377.664 3838.91 387.04 3850.55 393.507C3862.19 399.974 3875.29 403.207 3889.84 403.207Z" fill="var(--color-brand, #7c3aed)"/>
<path d="M639.977 451.707V192.717H697.692V262.557L687.507 241.217C696.56 224.727 709.655 212.117 726.792 203.387C744.252 194.334 764.299 189.807 786.932 189.807C807.625 189.807 826.055 193.849 842.222 201.932C858.712 210.015 871.645 222.464 881.022 239.277C890.399 255.767 895.087 277.107 895.087 303.297V451.707H834.462V311.057C834.462 288.1 828.965 270.964 817.972 259.647C807.302 248.33 792.267 242.672 772.867 242.672C758.64 242.672 746.03 245.582 735.037 251.402C724.044 257.222 715.475 265.952 709.332 277.592C703.512 288.909 700.602 303.297 700.602 320.757V451.707H639.977ZM1088.87 455.102C1062.35 455.102 1038.75 449.444 1018.06 438.127C997.364 426.487 981.036 410.644 969.072 390.597C957.109 370.55 951.127 347.755 951.127 322.212C951.127 296.345 957.109 273.55 969.072 253.827C981.036 233.78 997.364 218.099 1018.06 206.782C1038.75 195.465 1062.35 189.807 1088.87 189.807C1115.7 189.807 1139.47 195.465 1160.16 206.782C1181.18 218.099 1197.51 233.619 1209.15 253.342C1221.11 273.065 1227.09 296.022 1227.09 322.212C1227.09 347.755 1221.11 370.55 1209.15 390.597C1197.51 410.644 1181.18 426.487 1160.16 438.127C1139.47 449.444 1115.7 455.102 1088.87 455.102ZM1088.87 403.207C1103.74 403.207 1117 399.974 1128.64 393.507C1140.28 387.04 1149.33 377.664 1155.8 365.377C1162.59 353.09 1165.98 338.702 1165.98 322.212C1165.98 305.399 1162.59 291.01 1155.8 279.047C1149.33 266.76 1140.28 257.384 1128.64 250.917C1117 244.45 1103.9 241.217 1089.35 241.217C1074.48 241.217 1061.22 244.45 1049.58 250.917C1038.27 257.384 1029.21 266.76 1022.42 279.047C1015.63 291.01 1012.24 305.399 1012.24 322.212C1012.24 338.702 1015.63 353.09 1022.42 365.377C1029.21 377.664 1038.27 387.04 1049.58 393.507C1061.22 399.974 1074.32 403.207 1088.87 403.207ZM1403.89 455.102C1376.73 455.102 1352.48 449.444 1331.14 438.127C1310.12 426.487 1293.63 410.644 1281.67 390.597C1269.71 370.55 1263.72 347.755 1263.72 322.212C1263.72 296.345 1269.71 273.55 1281.67 253.827C1293.63 233.78 1310.12 218.099 1331.14 206.782C1352.48 195.465 1376.73 189.807 1403.89 189.807C1429.11 189.807 1451.26 194.98 1470.33 205.327C1489.73 215.35 1504.45 230.224 1514.47 249.947L1467.91 277.107C1460.15 264.82 1450.61 255.767 1439.29 249.947C1428.3 244.127 1416.34 241.217 1403.4 241.217C1388.53 241.217 1375.11 244.45 1363.15 250.917C1351.19 257.384 1341.81 266.76 1335.02 279.047C1328.23 291.01 1324.83 305.399 1324.83 322.212C1324.83 339.025 1328.23 353.575 1335.02 365.862C1341.81 377.825 1351.19 387.04 1363.15 393.507C1375.11 399.974 1388.53 403.207 1403.4 403.207C1416.34 403.207 1428.3 400.297 1439.29 394.477C1450.61 388.657 1460.15 379.604 1467.91 367.317L1514.47 394.477C1504.45 413.877 1489.73 428.912 1470.33 439.582C1451.26 449.929 1429.11 455.102 1403.89 455.102ZM1667.68 455.102C1639.22 455.102 1617.24 447.827 1601.72 433.277C1586.2 418.404 1578.44 396.579 1578.44 367.802V135.487H1639.06V366.347C1639.06 378.634 1642.13 388.172 1648.28 394.962C1654.74 401.752 1663.64 405.147 1674.95 405.147C1688.53 405.147 1699.85 401.59 1708.9 394.477L1725.88 437.642C1718.76 443.462 1710.03 447.827 1699.69 450.737C1689.34 453.647 1678.67 455.102 1667.68 455.102ZM1535.76 241.217V192.717H1708.42V241.217H1535.76ZM1775.75 451.707V192.717H1833.46V264.012L1826.67 243.157C1834.43 225.697 1846.56 212.44 1863.05 203.387C1879.86 194.334 1900.72 189.807 1925.61 189.807V247.522C1923.03 246.875 1920.6 246.552 1918.34 246.552C1916.08 246.229 1913.81 246.067 1911.55 246.067C1888.59 246.067 1870.32 252.857 1856.74 266.437C1843.16 279.694 1836.37 299.579 1836.37 326.092V451.707H1775.75ZM1977.04 451.707V192.717H2037.67V451.707H1977.04ZM2007.6 150.037C1996.28 150.037 1986.9 146.48 1979.47 139.367C1972.35 132.254 1968.8 123.685 1968.8 113.662C1968.8 103.315 1972.35 94.747 1979.47 87.957C1986.9 80.8437 1996.28 77.287 2007.6 77.287C2018.91 77.287 2028.13 80.682 2035.24 87.472C2042.68 93.9387 2046.4 102.184 2046.4 112.207C2046.4 122.877 2042.84 131.93 2035.73 139.367C2028.61 146.48 2019.24 150.037 2007.6 150.037ZM2117.24 451.707V192.717H2174.95V262.557L2164.77 241.217C2173.82 224.727 2186.92 212.117 2204.05 203.387C2221.51 194.334 2241.56 189.807 2264.19 189.807C2284.89 189.807 2303.32 193.849 2319.48 201.932C2335.97 210.015 2348.91 222.464 2358.28 239.277C2367.66 255.767 2372.35 277.107 2372.35 303.297V451.707H2311.72V311.057C2311.72 288.1 2306.23 270.964 2295.23 259.647C2284.56 248.33 2269.53 242.672 2250.13 242.672C2235.9 242.672 2223.29 245.582 2212.3 251.402C2201.3 257.222 2192.74 265.952 2186.59 277.592C2180.77 288.909 2177.86 303.297 2177.86 320.757V451.707H2117.24ZM2546.74 455.102C2518.29 455.102 2496.3 447.827 2480.78 433.277C2465.26 418.404 2457.5 396.579 2457.5 367.802V135.487H2518.12V366.347C2518.12 378.634 2521.2 388.172 2527.34 394.962C2533.81 401.752 2542.7 405.147 2554.01 405.147C2567.59 405.147 2578.91 401.59 2587.96 394.477L2604.94 437.642C2597.83 443.462 2589.1 447.827 2578.75 450.737C2568.4 453.647 2557.73 455.102 2546.74 455.102ZM2414.82 241.217V192.717H2587.48V241.217H2414.82ZM2654.81 451.707V91.837H2715.44V262.557L2702.34 241.217C2711.39 224.727 2724.49 212.117 2741.63 203.387C2759.09 194.334 2779.13 189.807 2801.77 189.807C2822.46 189.807 2840.89 193.849 2857.06 201.932C2873.55 210.015 2886.48 222.464 2895.86 239.277C2905.23 255.767 2909.92 277.107 2909.92 303.297V451.707H2849.3V311.057C2849.3 288.1 2843.8 270.964 2832.81 259.647C2822.14 248.33 2807.1 242.672 2787.7 242.672C2773.47 242.672 2760.86 245.582 2749.87 251.402C2738.88 257.222 2730.31 265.952 2724.17 277.592C2718.35 288.909 2715.44 303.297 2715.44 320.757V451.707H2654.81Z" fill="currentColor"/>
<path d="M213.207 359.207L150.207 422.207L0.707031 272.707L181.207 92.207L204.207 115.207L47.207 272.207L151.207 376.207L191.207 336.207L213.707 358.707L213.207 359.207Z" fill="var(--color-brand, #7c3aed)"/>
<path d="M476.707 340.707L453.707 317.707L499.207 272.207L400.707 173.707L355.707 218.707L332.707 195.707L400.707 127.707L545.207 272.207L476.707 340.707Z" fill="var(--color-brand, #7c3aed)"/>
<path d="M203.707 70.207L273.207 0.707031L379.707 107.207L312.207 174.707L290.207 152.707L334.207 108.707L272.207 46.707L226.207 92.707L203.707 70.207Z" fill="var(--color-brand, #7c3aed)"/>
<path d="M151.207 337.707L249.207 239.707L226.707 217.207L151.707 292.207L132.207 272.707L161.707 243.207L138.707 220.207L86.207 272.707L151.207 337.707Z" fill="var(--color-brand, #7c3aed)"/>
<path fill-rule="evenodd" clip-rule="evenodd" d="M161.707 198.707L183.207 220.207L226.707 176.707L289.707 239.707L212.207 317.207L297.207 402.207L256.207 443.207L277.207 464.207L463.707 277.707L400.707 214.707L317.207 298.207L296.707 277.707L334.707 239.707L249.207 154.207L294.707 108.707L273.207 87.207L161.707 198.707ZM401.207 259.207L419.707 277.707L319.707 378.707L258.207 317.207L274.707 300.707L317.207 343.207L401.207 259.207Z" fill="var(--color-brand, #7c3aed)"/>
<path d="M213.207 359.207L150.207 422.207L0.707031 272.707L181.207 92.207L204.207 115.207L47.207 272.207L151.207 376.207L191.207 336.207L213.707 358.707L213.207 359.207Z" stroke="var(--color-brand, #7c3aed)"/>
<path d="M476.707 340.707L453.707 317.707L499.207 272.207L400.707 173.707L355.707 218.707L332.707 195.707L400.707 127.707L545.207 272.207L476.707 340.707Z" stroke="var(--color-brand, #7c3aed)"/>
<path d="M203.707 70.207L273.207 0.707031L379.707 107.207L312.207 174.707L290.207 152.707L334.207 108.707L272.207 46.707L226.207 92.707L203.707 70.207Z" stroke="var(--color-brand, #7c3aed)"/>
<path d="M151.207 337.707L249.207 239.707L226.707 217.207L151.707 292.207L132.207 272.707L161.707 243.207L138.707 220.207L86.207 272.707L151.207 337.707Z" stroke="var(--color-brand, #7c3aed)"/>
<path d="M419.707 277.707L401.207 259.207L317.207 343.207L274.707 300.707L258.207 317.207L319.707 378.707L419.707 277.707Z" stroke="var(--color-brand, #7c3aed)"/>
<path fill-rule="evenodd" clip-rule="evenodd" d="M161.707 198.707L183.207 220.207L226.707 176.707L289.707 239.707L212.207 317.207L297.207 402.207L256.207 443.207L277.207 464.207L463.707 277.707L400.707 214.707L317.207 298.207L296.707 277.707L334.707 239.707L249.207 154.207L294.707 108.707L273.207 87.207L161.707 198.707ZM401.207 259.207L419.707 277.707L319.707 378.707L258.207 317.207L274.707 300.707L317.207 343.207L401.207 259.207Z" stroke="var(--color-brand, #7c3aed)"/>
<path d="M234.707 380.207L171.207 443.707L272.707 545.207L455.207 362.707L432.707 340.207L273.707 499.207L216.207 441.707L256.207 401.707L234.707 380.207Z" fill="var(--color-brand, #7c3aed)" stroke="var(--color-brand, #7c3aed)"/>
</svg>
